<?xml version="1.0" encoding="UTF-8"?><svg id="Laag_1" xmlns="http://www.w3.org/2000/svg" viewBox="0 0 805.45 427.22"><defs><style>.cls-1{stroke-width:13.03px;}.cls-1,.cls-2,.cls-3{fill:#fff;}.cls-1,.cls-2,.cls-3,.cls-4,.cls-5,.cls-6{stroke-linecap:round;stroke-linejoin:round;}.cls-1,.cls-6{stroke:#8db0de;}.cls-7,.cls-8,.cls-6{fill:#8db0de;}.cls-2{stroke:#1d1d1b;stroke-width:5.21px;}.cls-3{stroke:#2158a5;stroke-width:9.99px;}.cls-4{stroke-width:4.77px;}.cls-4,.cls-5{fill:#2158a5;}.cls-4,.cls-5,.cls-8{stroke:#fff;}.cls-5{stroke-width:5.86px;}.cls-8{stroke-miterlimit:10;stroke-width:8.69px;}.cls-6{stroke-width:13.85px;}</style></defs><path class="cls-2" d="M30.81,87.22v309.22"/><path class="cls-7" d="M267.11,399.37V69.89l-122.92-35.63L12.44,66.77v329.48"/><rect class="cls-6" x="6.93" y="399.43" width="265.7" height="20.86"/><path class="cls-3" d="M185.97,230.88v23.45"/><path class="cls-1" d="M139.9,38.49c44.28,15.27,88.57,30.53,132.85,45.8,0-4.2.55-27.77.55-31.97-44.28-15.27-88.57-30.54-132.85-45.8C96.17,21.78,51.89,37.05,7.61,52.32c0,4.2-.55,27.77-.55,31.97,44.28-15.27,88.57-30.53,132.85-45.8Z"/><path class="cls-8" d="M65.28,387.27V115.45c0-13.19,9.8-23.89,21.88-23.89h106.58c12.08,0,21.88,10.7,21.88,23.89v271.82H65.28Z"/><rect class="cls-4" x="187.96" y="223.51" width="3.88" height="21.54"/><path class="cls-5" d="M30.81,87.22v303.13"/><path class="cls-5" d="M246.09,90.21v303.13"/><path class="cls-7" d="M457.77,253.17l-27.01-112.13h-.45l-26.56,112.13h-35.49l-42.19-164.73h35.04l25.22,112.13h.45l27.68-112.13h32.81l27.23,113.51h.45l26.11-113.51h34.37l-42.86,164.73h-34.82Z"/><path class="cls-7" d="M653.74,132.39c-2.09-3.46-4.69-6.5-7.81-9.11-3.13-2.61-6.66-4.65-10.6-6.11-3.94-1.46-8.07-2.19-12.39-2.19-7.89,0-14.59,1.58-20.09,4.73-5.51,3.15-9.97,7.38-13.39,12.69-3.42,5.31-5.92,11.34-7.48,18.11-1.56,6.77-2.34,13.77-2.34,20.99s.78,13.65,2.34,20.19c1.56,6.54,4.05,12.42,7.48,17.65,3.42,5.23,7.89,9.42,13.39,12.57,5.5,3.15,12.2,4.73,20.09,4.73,10.71,0,19.08-3.38,25.11-10.15,6.03-6.77,9.71-15.69,11.05-26.76h33.93c-.89,10.31-3.2,19.61-6.92,27.92-3.72,8.31-8.63,15.38-14.73,21.23-6.1,5.85-13.25,10.31-21.43,13.38-8.19,3.08-17.19,4.61-27.01,4.61-12.2,0-23.18-2.19-32.92-6.58-9.75-4.38-17.97-10.42-24.66-18.11-6.7-7.69-11.83-16.73-15.4-27.11-3.57-10.38-5.36-21.57-5.36-33.57s1.79-23.72,5.36-34.26c3.57-10.53,8.7-19.73,15.4-27.57,6.7-7.84,14.92-13.99,24.66-18.46,9.74-4.46,20.72-6.69,32.92-6.69,8.78,0,17.07,1.31,24.89,3.92,7.81,2.62,14.81,6.42,20.98,11.42,6.17,5,11.27,11.19,15.29,18.57,4.02,7.38,6.55,15.84,7.59,25.38h-33.93c-.6-4.15-1.94-7.96-4.02-11.42Z"/><path class="cls-7" d="M781.07,176.21v28.15h-67.18v-28.15h67.18Z"/><path class="cls-7" d="M363.45,274.95c6.04,0,11.66,1.05,16.86,3.14,5.2,2.09,9.71,5.23,13.52,9.41,3.81,4.18,6.78,9.41,8.92,15.68,2.14,6.27,3.22,13.64,3.22,22.09,0,7.41-.88,14.25-2.62,20.53-1.75,6.27-4.4,11.69-7.94,16.25-3.54,4.56-7.96,8.15-13.25,10.76-5.29,2.61-11.53,3.92-18.7,3.92h-40.42v-101.77h40.42ZM362,357.91c2.97,0,5.86-.52,8.66-1.57,2.8-1.04,5.29-2.78,7.48-5.2,2.19-2.42,3.94-5.58,5.25-9.48,1.31-3.9,1.97-8.65,1.97-14.25,0-5.13-.46-9.76-1.38-13.9-.92-4.13-2.43-7.67-4.53-10.62-2.1-2.94-4.88-5.2-8.33-6.77-3.46-1.57-7.72-2.35-12.8-2.35h-14.7v64.14h18.37Z"/><path class="cls-7" d="M440.87,274.95v101.77h-20.6v-101.77h20.6Z"/><path class="cls-7" d="M509.51,274.95c4.2,0,7.98.74,11.35,2.21,3.37,1.47,6.25,3.49,8.66,6.06,2.41,2.57,4.24,5.54,5.51,8.91,1.27,3.37,1.9,7.01,1.9,10.9,0,5.99-1.16,11.17-3.48,15.54-2.32,4.37-6.1,7.7-11.35,9.98v.29c2.54.76,4.64,1.92,6.3,3.49,1.66,1.57,3.02,3.42,4.07,5.56,1.05,2.14,1.81,4.49,2.3,7.06.48,2.57.81,5.13.98,7.7.09,1.62.17,3.52.26,5.7.09,2.19.24,4.42.46,6.7.22,2.28.57,4.44,1.05,6.49.48,2.04,1.2,3.78,2.17,5.2h-20.6c-1.14-3.23-1.84-7.08-2.1-11.55-.26-4.47-.66-8.74-1.18-12.83-.7-5.32-2.19-9.22-4.46-11.69-2.28-2.47-5.99-3.71-11.16-3.71h-20.6v39.77h-20.6v-101.77h50.53ZM502.16,320.99c4.72,0,8.27-1.14,10.63-3.42,2.36-2.28,3.54-5.99,3.54-11.12s-1.18-8.53-3.54-10.76c-2.36-2.23-5.91-3.35-10.63-3.35h-22.57v28.65h22.57Z"/><path class="cls-7" d="M623.82,274.95v18.82h-49.48v21.81h45.41v17.39h-45.41v24.94h50.53v18.82h-71.13v-101.77h70.08Z"/><path class="cls-7" d="M698.88,302.1c-1.23-2.14-2.76-4.01-4.59-5.63-1.84-1.61-3.92-2.87-6.23-3.78-2.32-.9-4.75-1.35-7.28-1.35-4.64,0-8.58.98-11.81,2.92-3.24,1.95-5.86,4.56-7.87,7.84-2.01,3.28-3.48,7.01-4.4,11.19-.92,4.18-1.38,8.51-1.38,12.97s.46,8.43,1.38,12.47c.92,4.04,2.38,7.67,4.4,10.9,2.01,3.23,4.64,5.82,7.87,7.77,3.24,1.95,7.17,2.92,11.81,2.92,6.3,0,11.22-2.09,14.76-6.27,3.54-4.18,5.71-9.69,6.5-16.53h19.95c-.53,6.37-1.88,12.12-4.07,17.25-2.19,5.13-5.08,9.5-8.66,13.11-3.59,3.61-7.79,6.37-12.6,8.27-4.81,1.9-10.11,2.85-15.88,2.85-7.17,0-13.63-1.35-19.36-4.06-5.73-2.71-10.56-6.44-14.5-11.19-3.94-4.75-6.96-10.33-9.06-16.75-2.1-6.41-3.15-13.33-3.15-20.74s1.05-14.66,3.15-21.17c2.1-6.51,5.12-12.19,9.06-17.03,3.94-4.85,8.77-8.65,14.5-11.4,5.73-2.75,12.18-4.13,19.36-4.13,5.16,0,10.04.81,14.63,2.42,4.59,1.62,8.7,3.97,12.34,7.06,3.63,3.09,6.63,6.91,8.99,11.47,2.36,4.56,3.85,9.79,4.46,15.68h-19.95c-.35-2.57-1.14-4.92-2.36-7.06Z"/><path class="cls-7" d="M728.67,293.76v-18.82h76.77v18.82h-28.09v82.96h-20.6v-82.96h-28.08Z"/></svg>