<svg width="15" height="14" viewBox="0 0 15 14" fill="none" xmlns="http://www.w3.org/2000/svg">
<path d="M1.10658 5.89373C0.89938 5.70825 1.01193 5.37293 1.29219 5.34076L5.26336 4.88481C5.37758 4.8717 5.47679 4.80227 5.52497 4.70117L7.19995 1.18608C7.31816 0.938005 7.68249 0.937958 7.8007 1.18603L9.47568 4.70109C9.52386 4.8022 9.62243 4.87182 9.73665 4.88493L13.708 5.34076C13.9883 5.37293 14.1005 5.70835 13.8933 5.89383L10.9577 8.52223C10.8732 8.59783 10.8356 8.71035 10.858 8.81956L11.6372 12.6163C11.6922 12.8843 11.3976 13.0919 11.1513 12.9584L7.66184 11.0672C7.56147 11.0128 7.43953 11.0131 7.33916 11.0675L3.84934 12.958C3.60307 13.0914 3.30793 12.8843 3.36293 12.6163L4.14217 8.81979C4.16459 8.71059 4.12709 8.5978 4.04264 8.52221L1.10658 5.89373Z" fill="black" stroke="black" stroke-linecap="round" stroke-linejoin="round"/>
</svg>
